# xmcd
#
# Track frame offsets:
#	150
#	16654
#	35711
#	54342
#	70834
#	87906
#
# Disc length: 1492 seconds
#
# Revision: 0
# Processed by: cddbd v1.5.2PL0 Copyright (c) Steve Scherf et al.
# Submitted via: audiograbber 1.83.01
#
DISCID=4205d206
DTITLE=Rowwen Hèze - Zilver [CDA)
DYEAR=2010
DGENRE=Limburgs Blues
TTITLE0=Wakker Vur De Wekker
TTITLE1=Mier, Steeds Mier
TTITLE2=Megje Van Vermeer
TTITLE3=Zilverstroat
TTITLE4=D'n Bal
TTITLE5=America
EXTD=
EXTT0=
EXTT1=
EXTT2=
EXTT3=
EXTT4=
EXTT5=
PLAYORDER=
